<?xml version="1.0" standalone="no"?>
<!DOCTYPE svg PUBLIC "-//W3C//DTD SVG 1.1//EN" "http://www.w3.org/Graphics/SVG/1.1/DTD/svg11.dtd">
<svg xmlns="http://www.w3.org/2000/svg" xmlns:xlink="http://www.w3.org/1999/xlink" xml:space="preserve" width="10000" height="10000" version="1.1" style="shape-rendering:geometricPrecision; text-rendering:geometricPrecision; image-rendering:optimizeQuality; fill-rule:evenodd; clip-rule:evenodd" viewBox="0 0 10000 10000">
 <defs>
  <style type="text/css">
   <![CDATA[
    .fil0 {fill:#A84032;fill-rule:nonzero}
   ]]>
  </style>
 </defs>
 <g id="Layer_x0020_1">
  <metadata id="CorelCorpID_0Corel-Layer"/>
  <g id="_2208396928096">
   <g>
    <path class="fil0" d="M1418 6970c-135,0 -242,-93 -268,-262 -56,-373 422,-248 508,-482l80 531c-40,66 -148,213 -320,213zm735 -109c0,0 -42,92 -134,92 -61,0 -92,-43 -105,-125l-105 -692c-44,-293 -164,-457 -465,-457 -267,0 -402,129 -378,285 1,1 1,2 1,3 14,87 104,140 190,122l4 -2c0,0 -118,-372 166,-372 210,0 280,178 310,377 60,391 -720,195 -653,636 27,179 173,300 369,300 216,0 339,-139 392,-223 26,150 104,223 217,223 164,0 210,-156 210,-156l-19 -11z"/>
    <path class="fil0" d="M5737 6970c-135,0 -243,-93 -268,-262 -57,-373 422,-248 506,-482l82 531c-40,66 -149,213 -320,213zm735 -109c0,0 -42,92 -134,92 -62,0 -93,-43 -105,-125l-105 -692c-44,-293 -165,-457 -466,-457 -267,0 -401,129 -378,285 0,1 1,2 1,3 15,87 104,140 191,122l4 -2c0,0 -118,-372 166,-372 209,0 280,178 310,377 60,391 -721,195 -654,636 28,179 173,300 370,300 216,0 339,-139 392,-223 26,150 104,223 216,223 164,0 210,-156 210,-156l-18 -11z"/>
    <path class="fil0" d="M8434 6970c-135,0 -242,-93 -268,-262 -56,-373 422,-248 508,-482l80 531c-40,66 -148,213 -320,213zm735 -109c0,0 -42,92 -134,92 -61,0 -92,-43 -105,-125l-105 -692c-44,-293 -164,-457 -465,-457 -267,0 -402,129 -378,285 1,1 1,2 1,3 14,87 104,140 190,122l5 -2c0,0 -119,-372 165,-372 210,0 281,178 310,377 60,391 -720,195 -653,636 27,179 173,300 369,300 216,0 339,-139 393,-223 25,150 104,223 217,223 163,0 209,-156 209,-156l-19 -11z"/>
    <path class="fil0" d="M3501 5676l-312 0 0 47c43,0 75,3 97,10 23,6 40,19 52,35 12,18 20,42 24,75 5,33 7,80 7,139l0 761 -723 -1067 -266 0 0 47c41,0 73,3 96,10 22,6 40,19 52,35 12,18 20,42 24,75 5,33 7,80 7,139l0 729c0,59 -2,106 -7,139 -4,33 -12,58 -24,76 -12,18 -29,31 -51,37 -8,2 -15,3 -21,5 -72,23 -21,53 43,53l310 0 0 -48c-41,0 -73,-3 -95,-10 -23,-6 -41,-19 -53,-37 -13,-18 -22,-43 -26,-77 -4,-33 -6,-80 -6,-138l0 -780 741 1090 69 0 0 -1039c0,-57 2,-104 6,-138 5,-33 13,-58 26,-76 12,-16 30,-29 52,-35 5,-2 13,-3 19,-5l2 0c72,-23 21,-52 -43,-52z"/>
    <path class="fil0" d="M4935 5676l-987 0c-44,0 -80,34 -82,77l-13 225 40 0 9 -45c15,-67 35,-112 60,-135 26,-24 78,-35 159,-35l246 0 0 948c0,58 -2,105 -6,138 -5,34 -13,59 -26,77 -13,18 -30,31 -53,37 -22,7 -54,10 -96,10l0 48 511 0 0 -48c-42,0 -74,-3 -96,-10 -23,-6 -41,-19 -53,-37 -12,-18 -21,-43 -26,-77 -4,-33 -6,-80 -6,-138l0 -948 247 0c81,0 133,11 158,35 26,23 45,68 61,135l9 45 39 0 -12 -225c-3,-43 -39,-77 -83,-77z"/>
    <path class="fil0" d="M7053 6350l0 -591 166 0c78,0 138,28 178,82 41,56 62,127 62,214 0,86 -21,157 -62,213 -40,54 -100,82 -178,82l-166 0zm599 536c-61,-51 -119,-117 -177,-197l-184 -257c104,-14 186,-55 245,-124 60,-69 89,-154 89,-253 0,-110 -35,-200 -107,-271 -71,-72 -171,-108 -297,-108l-498 0 0 47c42,0 74,3 97,10 23,6 39,19 52,36 11,17 19,42 24,75 4,32 6,79 6,138l0 730c0,59 -2,106 -6,139 -5,33 -13,57 -24,76 -13,17 -29,30 -52,37 -23,6 -55,9 -97,9l0 48 509 0 0 -48c-41,0 -73,-3 -96,-9 -22,-7 -40,-20 -51,-37 -13,-19 -21,-43 -25,-76 -4,-33 -7,-80 -7,-139l0 -280 88 0 236 372c86,135 234,217 394,217l54 0 0 -48c-55,-7 -113,-36 -173,-87z"/>
   </g>
   <path class="fil0" d="M2973 4411c-223,0 -404,-15 -589,-158 -5,-3 -20,-16 -17,-27 2,-9 20,-27 58,-34 346,-63 660,-195 921,-315 375,-174 706,-376 1026,-572 175,-108 357,-219 544,-324l37 -21c146,-83 271,-154 423,-154 88,0 180,24 280,75 277,139 508,317 731,488 88,68 180,139 273,206 350,252 725,495 1114,722 10,5 23,12 38,19 18,9 52,27 75,42 -178,-3 -698,-318 -885,-439 -209,-137 -395,-291 -576,-440 -186,-154 -379,-313 -598,-454 -125,-81 -240,-148 -384,-148 -51,0 -102,9 -156,26 -202,64 -433,337 -619,557 -72,85 -139,164 -191,215 -371,362 -954,736 -1505,736l0 0z"/>
  </g>
 </g>
</svg>